<?xml version="1.0" encoding="UTF-8"?>
<svg width="59px" height="70px" viewBox="0 0 59 70" version="1.1" xmlns="http://www.w3.org/2000/svg" xmlns:xlink="http://www.w3.org/1999/xlink">
    <!-- Generator: Sketch 49.3 (51167) - http://www.bohemiancoding.com/sketch -->
    <title>better_icon</title>
    <desc>Created with Sketch.</desc>
    <defs>
        <linearGradient x1="50.008661%" y1="0.92849354%" x2="50.008661%" y2="99.7630598%" id="linearGradient-1">
            <stop stop-color="#43F49F" offset="0%"></stop>
            <stop stop-color="#41D888" offset="100%"></stop>
        </linearGradient>
        <linearGradient x1="50.0121917%" y1="-2.62458472%" x2="50.0121917%" y2="102.491694%" id="linearGradient-2">
            <stop stop-color="#2378D6" offset="0%"></stop>
            <stop stop-color="#3DC2C9" offset="100%"></stop>
        </linearGradient>
    </defs>
    <g id="Page-1" stroke="none" stroke-width="1" fill="none" fill-rule="evenodd">
        <g id="better_icon" fill-rule="nonzero">
            <path d="M30,70 C37.6739682,70.1479429 45.1391553,67.4960241 51,62.54 L51.3,62.29 L51.59,62.05 C54.8817672,59.1082117 57.1689265,55.2088499 58.13,50.9 L58.13,50.78 C55.7777086,54.4167642 51.7412036,56.6119903 47.41,56.61 C40.36,56.61 34.64,53.1 34.64,43.89 L34.64,15.74 C34.64,6.28 27.27,0 17.81,0 C8.35,0 0.4,6.28 0.4,15.74 L0.4,44.42 C0.404719161,46.3022226 0.643211553,48.1765712 1.11,50 C1.16,50.26 1.24,50.5 1.3,50.75 C1.36,51 1.39,51.11 1.45,51.29 C4.63,63.12 16,70 29.58,70 L30,70 Z" id="Shape" fill="url(#linearGradient-1)"></path>
            <path d="M58.6,46.87 C58.83,35.63 49.49,26.52 38.25,26.52 L34.65,26.52 L34.65,43.9 C34.65,53.12 40.37,56.62 47.42,56.62 C51.7402483,56.6196029 55.7668867,54.4331759 58.12,50.81 C58.4066308,49.5152098 58.5673789,48.1957355 58.6,46.87 Z" id="Shape" fill="url(#linearGradient-2)"></path>
            <path d="M48.43,55.62 C41.38,55.62 35.66,52.11 35.66,42.9 L34.71,26.52 L34.65,26.52 L34.65,43.9 C34.65,53.12 40.37,56.62 47.42,56.62 C51.036096,56.6181631 54.4802179,55.0761275 56.89,52.38 C54.564673,54.4640777 51.5525823,55.6176444 48.43,55.62 Z" id="Shape" fill="#231F20" opacity="0.1"></path>
            <path d="M47.3,56.71 C43.53,56.71 40.37,55.71 38.19,53.77 C35.68,51.57 34.41,48.23 34.41,43.86 L34.65,26.1 L34.65,43.87 C34.65,54.87 42.57,56.47 47.3,56.47 C51.7331752,56.3247498 55.8150673,54.0205161 58.23,50.3 L58.12,50.83 C55.7459085,54.5002801 51.6711835,56.7146408 47.3,56.71 Z" id="Shape" fill="#61F5A9"></path>
        </g>
    </g>
</svg>